<svg version="1.2" xmlns="http://www.w3.org/2000/svg" viewBox="0 0 134 39" width="134" height="39"><style></style><path  d="m2.2 18.6c0 4.1 2.9 7.6 7.5 7.6 4.5 0 7.3-3.6 7.3-7.8 0-4-2.8-7.3-7.3-7.3-4.5 0-7.5 3.3-7.5 7.5zm1.7-0.1c0-3.6 2-6.8 5.8-6.8 3.7 0 5.6 3.3 5.6 6.7 0 3.6-1.9 7.2-5.6 7.2-3.7 0-5.8-3.5-5.8-7.1zm14.7-1.1h0.7c0.7 0 0.8 0.1 0.8 0.8v7.3h-0.9v0.5h4v-0.5h-0.7c-0.7 0-0.8-0.2-0.8-0.9v-6.6c0.4-0.3 1-0.6 1.7-0.7l1.9 0.8c0.1-0.3 0.2-0.6 0.2-1 0-0.3-0.3-0.6-1.2-0.6-0.9 0-1.9 0.3-2.6 0.9v-0.2l-0.1-0.6c-0.8 0.1-1.5 0.2-3 0.2zm8.4 12c0 1.4 1.1 2.9 4 2.9 2.8 0 6.1-1.8 6.1-4.2 0-2.1-1.7-2.6-5.1-2.8-2.7-0.1-3.4-0.3-3.4-1 0-0.7 1.3-0.9 2.9-1 2.3-0.3 3.9-1.3 3.9-3.5 0-1-0.1-1.6-0.4-2.4 0.4 0 1 0 1.7 0v-0.2l-0.1-0.6-2.9 0.3c-0.6-0.2-1.2-0.4-2-0.4-2.2 0-3.8 1.4-3.8 3.3 0 1.4 0.9 2.5 2.2 3-2 0.4-2.8 1-2.8 2 0 0.8 0.4 1.2 1.1 1.5-0.8 0.9-1.4 1.9-1.4 3.1zm0.8 0c0-1.9 2.2-2.8 2.2-2.8 0.5 0 0.8 0.1 1.3 0.1 2.5 0.1 4.3 0.3 4.3 1.8 0 1.5-2.2 3.1-4.7 3.1-1.8 0-3.1-0.8-3.1-2.2zm1.7-9.6c0-1.5 0.7-2.7 2.2-2.7 0.9 0 1.5 0.4 1.8 1 0.2 0.6 0.3 1.2 0.3 1.7 0 1.5-0.7 2.7-2.1 2.7-1.5 0-2.2-1.2-2.2-2.7zm8.4 4.3c0 0.8 0.5 2.1 2.5 2.1 0.7 0 2.1-0.3 3.6-0.9v0.3l0.1 0.6c0.8-0.1 1.5-0.2 3-0.2v-0.5h-0.7c-0.7 0-0.8-0.2-0.8-0.9v-4.8c0-2.5-1-3.3-2.9-3.3-1 0-4.3 0.7-4.3 2.2 0 0.3 0.5 0.6 1 0.7l0.7-1.8c0.7-0.2 1.2-0.3 1.7-0.3 1.2 0 2.2 0.3 2.2 2.6v1c-2.8 0-6.1 0.9-6.1 3.2zm1.5-0.2c0-2.1 3.1-2.5 4.6-2.5v3.3c-1.3 0.5-1.9 0.6-2.7 0.6-1.3 0-1.9-0.7-1.9-1.4zm8.6-6.5h0.7c0.7 0 0.8 0.1 0.8 0.8v7.3h-1v0.5h4.1v-0.5h-0.7c-0.7 0-0.8-0.2-0.8-0.9v-6.6c1.3-0.5 2-0.7 2.8-0.7 1.2 0 2.2 0.3 2.2 2.6v5.6h-1v0.5h4.1v-0.5h-0.8c-0.7 0-0.8-0.2-0.8-0.9v-4.8c0-2.5-1-3.3-2.9-3.3-0.7 0-2.1 0.3-3.6 0.9v-0.2l-0.1-0.6c-0.8 0.1-1.5 0.2-3 0.2zm12 0h0.7c0.7 0 0.8 0.1 0.8 0.8v7.3h-0.9v0.5h4.1v-0.5h-0.8c-0.7 0-0.8-0.2-0.8-0.9v-7.4l-0.1-0.5c-0.8 0-1.5 0.1-3 0.1zm1.3-3.3c0 0.6 0.5 1.1 1 1.1 0.6 0 1-0.5 1-1.1 0-0.6-0.4-1-1-1-0.5 0-1 0.4-1 1zm4.6 7.3c0 2.6 1.9 4.8 4.7 4.8 1 0 2.3-0.4 3.4-1.6l-0.4-0.4c-0.7 0.8-1.6 1.2-2.8 1.2-2.1 0-3.3-2-3.3-4 0-2.3 1-4.2 3.1-4.2 0.7 0 1.4 0.2 1.9 0.8l0.6 1.4h0.5v-2.6h-0.6l-0.3 0.2c-0.7-0.3-1.4-0.5-2.1-0.5-2.8 0-4.7 2.1-4.7 4.9zm10.1 2.7c0 0.8 0.5 2.1 2.4 2.1 0.8 0 2.1-0.3 3.7-0.9v0.3 0.6c0.9-0.1 1.6-0.2 3.1-0.2v-0.5h-0.7c-0.7 0-0.9-0.2-0.9-0.9v-4.8c0-2.5-1-3.3-2.9-3.3-1 0-4.2 0.7-4.2 2.2 0 0.4 0.5 0.6 1 0.7l0.7-1.7c0.7-0.3 1.2-0.3 1.7-0.3 1.2 0 2.2 0.2 2.2 2.5v1c-2.8 0-6.1 0.9-6.1 3.2zm1.5-0.2c0-2.1 3-2.4 4.6-2.4v3.2c-1.4 0.5-2 0.7-2.7 0.7-1.4 0-1.9-0.8-1.9-1.5zm8.5-12.6h0.7c0.7 0 0.9 0.1 0.9 0.8v13.9h0.5l0.5-1.1c0.8 0.8 1.9 1.3 3.1 1.3 2.8 0 4.7-2.2 4.7-4.8 0-2.9-1.9-4.9-4.7-4.9-0.9 0-1.8 0.3-2.6 0.9v-6.4l-0.2-0.6c-0.8 0.3-1.8 0.3-2.9 0.3zm3.1 12.4v-5.6c0.6-0.4 1.3-0.7 2.3-0.7 2.3 0 3.4 1.8 3.4 4 0 2.1-1 4.2-3.1 4.2-1.3 0-2.1-0.8-2.6-1.9zm8.9-2.3c0 2.6 1.9 4.8 4.7 4.8 1.1 0 2.4-0.3 3.4-1.5l-0.4-0.5c-0.7 0.8-1.5 1.2-2.8 1.2-2 0-3.2-1.9-3.3-3.9h3.8c1.5 0 2.1-0.1 3-0.2 0.1-0.3 0.1-0.6 0.1-1 0-2.1-1.4-3.7-3.8-3.7-2.8 0-4.7 2-4.7 4.8zm1.7-0.5c0.1-2 1-3.7 3-3.7 1.6 0 2.3 1.5 2.3 2.8 0 0.3 0 0.6-0.1 0.9-0.4 0-0.9 0-1.5 0zm8.2-9.6h0.7c0.7 0 0.8 0.2 0.8 0.9v13.3h-0.9v0.6h4v-0.6h-0.7c-0.7 0-0.8-0.1-0.8-0.8v-13.7l-0.3-0.6c-0.8 0.3-1.7 0.4-2.8 0.4zm5.5 0h0.7c0.7 0 0.8 0.1 0.8 0.8v13.4h-1v0.5h4.1v-0.5h-0.7c-0.7 0-0.8-0.2-0.8-0.9v-13.7l-0.3-0.6c-0.8 0.4-1.7 0.4-2.8 0.4zm5.9 10.1c0 2.6 1.9 4.8 4.6 4.8 1.1 0 2.4-0.4 3.5-1.6l-0.4-0.4c-0.8 0.8-1.6 1.2-2.9 1.2-2 0-3.2-1.9-3.2-3.9h3.7c1.5 0 2.2-0.1 3-0.2 0.1-0.3 0.1-0.7 0.1-1 0-2.1-1.4-3.8-3.8-3.8-2.8 0-4.6 2.1-4.6 4.9zm1.6-0.5c0.1-2 1-3.7 3-3.7 1.7 0 2.4 1.5 2.4 2.8 0 0.3-0.1 0.6-0.1 0.8-0.4 0.1-1 0.1-1.6 0.1z"/></svg>